# xmcd
#
# Track frame offsets: 
#        150
#        20332
#        34780
#        55078
#        72457
#        89418
#        107194
#        128456
#        146093
#        159700
#        176579
#        197823
#        219279
#
# Disc length: 3114 seconds
#
# Revision: 0
# Processed by: cddbd v1.5.2PL0 Copyright (c) Steve Scherf et al.
# Submitted via: ExactAudioCopy v1.0b4
#
DISCID=b70c280d
DTITLE=Shawn Pittman - Edge of the World
DYEAR=2011
DGENRE=Blues
TTITLE0=Sugar (Where'd You Get Your Sugar from)
TTITLE1=Leanin' Load
TTITLE2=Scent Of Your Benjmins
TTITLE3=Almost Good
TTITLE4=One Of These Days
TTITLE5=Edge Of The World
TTITLE6=That's The Thing
TTITLE7=Maintain
TTITLE8=I've Had Enough
TTITLE9=This Time
TTITLE10=Something's Gotta Give
TTITLE11=Somebody Gonna Lose, Somebody Gonna Win
TTITLE12=If I Could (Make The World Stop Turning)
EXTD=
EXTT0=
EXTT1=
EXTT2=
EXTT3=
EXTT4=
EXTT5=
EXTT6=
EXTT7=
EXTT8=
EXTT9=
EXTT10=
EXTT11=
EXTT12=
PLAYORDER=
